<svg width="128" height="51" viewBox="0 0 128 51" fill="none" xmlns="http://www.w3.org/2000/svg">
<path d="M3.46143 48.0385C6.29048 55.0344 10.1725 10.4056 15.3531 11.2004M32.5344 12.105C28.108 10.2035 22.005 33.9231 20.1907 35.569C18.3654 36.1896 20.3961 11.9956 15.2155 11.2007M39.516 34.035C25.671 40.6861 36.9611 11.9774 32.2256 11.9774" stroke="black" stroke-width="3.38011" stroke-linecap="round"/>
<path d="M45.7209 37.0147C44.0472 37.0147 42.5458 36.6199 41.2167 35.8303C39.9122 35.0159 38.8784 33.9055 38.1154 32.4989C37.377 31.0924 37.0078 29.5008 37.0078 27.724C37.0078 25.9473 37.3893 24.368 38.1523 22.9862C38.9153 21.6043 39.9491 20.5185 41.2536 19.7289C42.5827 18.9145 44.0718 18.5074 45.7209 18.5074C47.37 18.5074 48.8468 18.9145 50.1513 19.7289C51.4558 20.5185 52.4772 21.6043 53.2156 22.9862C53.9786 24.368 54.3601 25.9473 54.3601 27.724C54.3601 29.5008 53.9786 31.0924 53.2156 32.4989C52.4772 33.9055 51.4558 35.0159 50.1513 35.8303C48.8714 36.6199 47.3946 37.0147 45.7209 37.0147ZM45.684 33.8315C47.2592 33.8315 48.5145 33.2763 49.4498 32.1658C50.4097 31.0554 50.8897 29.5748 50.8897 27.724C50.8897 26.811 50.7543 25.972 50.4836 25.207C49.0068 25.1577 47.6653 24.8616 46.4593 24.3187C45.2779 23.7758 44.3426 23.0355 43.6534 22.0978C42.6689 22.5173 41.8935 23.2329 41.3274 24.2447C40.7613 25.2317 40.4783 26.4162 40.4783 27.7981C40.4783 29.5995 40.9459 31.0554 41.8812 32.1658C42.8411 33.2763 44.1087 33.8315 45.684 33.8315Z" fill="black"/>
<path d="M65.7586 37.0147C64.0849 37.0147 62.5834 36.6199 61.2543 35.8303C59.9498 35.0159 58.9161 33.9055 58.1531 32.4989C57.4147 31.0924 57.0455 29.5008 57.0455 27.724C57.0455 26.4162 57.267 25.1824 57.71 24.0226C55.3718 24.5655 52.8612 24.8369 50.1784 24.8369C49.8092 24.8369 49.5138 24.6888 49.2923 24.3927C49.0708 24.0719 48.96 23.6771 48.96 23.2082C48.96 22.1965 49.3661 21.6906 50.1784 21.6906C54.3134 21.6906 58.1038 20.9874 61.5497 19.5808C62.8296 18.8652 64.2325 18.5074 65.7586 18.5074C67.4076 18.5074 68.8844 18.9145 70.1889 19.7289C71.4934 20.5185 72.5149 21.6043 73.2533 22.9862C74.0163 24.368 74.3978 25.9473 74.3978 27.724C74.3978 29.5008 74.0163 31.0924 73.2533 32.4989C72.5149 33.9055 71.4934 35.0159 70.1889 35.8303C68.909 36.6199 67.4323 37.0147 65.7586 37.0147ZM65.7216 33.8315C67.2969 33.8315 68.5522 33.2763 69.4875 32.1658C70.4474 31.0554 70.9273 29.5748 70.9273 27.724C70.9273 26.811 70.792 25.972 70.5212 25.207C69.0444 25.1577 67.703 24.8616 66.497 24.3187C65.3155 23.7758 64.3802 23.0355 63.691 22.0978C62.7065 22.5173 61.9312 23.2329 61.3651 24.2447C60.799 25.2317 60.5159 26.4162 60.5159 27.7981C60.5159 29.5995 60.9836 31.0554 61.9189 32.1658C62.8788 33.2763 64.1464 33.8315 65.7216 33.8315Z" fill="black"/>
<path d="M85.031 37.0147C83.4804 37.0147 82.1143 36.6446 80.9329 35.9043C79.7761 35.164 78.8654 34.1276 78.2008 32.7951C77.5609 31.4625 77.2409 29.9326 77.2409 28.2052C77.2409 26.7 77.487 25.3057 77.9793 24.0226C75.5918 24.5901 73.0074 24.8739 70.2261 24.8739C69.8569 24.8739 69.5616 24.7259 69.3401 24.4297C69.1185 24.1089 69.0078 23.7141 69.0078 23.2453C69.0078 22.2335 69.4139 21.7277 70.2261 21.7277C74.3858 21.7277 78.2008 21.012 81.6713 19.5808C82.902 18.8652 84.2434 18.5074 85.6956 18.5074C86.557 18.5074 87.4062 18.6801 88.243 19.0256C89.0799 19.3464 89.7814 19.7906 90.3475 20.3581V8.67533C90.3475 8.09698 90.3685 5.14505 92.0458 5.14505C93.723 5.14505 93.7072 6.36191 93.7072 6.94026V30.019C93.7072 31.3762 93.8795 32.3509 94.224 32.9431C94.5932 33.5354 95.1716 33.8315 95.9593 33.8315C96.3039 33.8315 96.5623 33.9795 96.7346 34.2757C96.9315 34.5718 97.0299 34.9666 97.0299 35.4601C97.0299 35.855 96.9192 36.2128 96.6977 36.5336C96.5008 36.8543 96.1685 37.0147 95.7008 37.0147C93.3626 37.0147 91.7873 36.0524 90.9751 34.1276C90.2613 35.0406 89.3998 35.7562 88.3907 36.2745C87.3816 36.768 86.2617 37.0147 85.031 37.0147ZM80.6745 28.2052C80.6745 29.9573 81.0683 31.3392 81.8559 32.3509C82.6681 33.3379 83.7757 33.8315 85.1787 33.8315C86.7293 33.8315 87.9723 33.3009 88.9076 32.2398C89.8675 31.1788 90.3475 29.7845 90.3475 28.0572V23.9115C89.8552 23.2453 89.2276 22.7147 88.4645 22.3199C87.7015 21.9004 86.9139 21.6906 86.1017 21.6906C85.0433 21.6906 84.108 21.9744 83.2958 22.542C82.4835 23.1095 81.8436 23.8869 81.3759 24.8739C80.9083 25.8363 80.6745 26.9467 80.6745 28.2052Z" fill="black"/>
<path d="M95.7008 37.0147C95.3809 37.0147 93.6511 36.8667 93.4542 36.5706C93.2573 36.2745 93.1588 35.892 93.1588 35.4231C93.1588 34.9296 93.2819 34.5471 93.528 34.2757C93.7496 33.9795 94.0572 33.8315 94.451 33.8315C95.2387 33.8315 96.0878 33.5477 96.9985 32.9801C97.9092 32.4126 98.7953 31.6353 99.6567 30.6482C99.4598 29.7352 99.2998 28.6618 99.1768 27.4279C99.0783 26.1941 99.0045 24.7012 98.9553 22.9491C98.906 21.1971 98.8814 19.0873 98.8814 16.6196H98.9183L98.8814 16.5826C98.8814 14.3864 98.906 12.5233 98.9553 10.9934C99.0045 9.46344 99.1029 8.18026 99.2506 7.14385C99.3983 6.10743 99.5829 5.23142 99.8044 4.5158C100.051 3.7755 100.358 3.10924 100.727 2.517C101.269 1.62865 101.933 0.98706 102.721 0.592237C103.533 0.197412 104.419 0 105.379 0C107.299 0 108.776 0.851339 109.81 2.55402C110.843 4.2567 111.36 6.60096 111.36 9.58682C111.36 13.1649 110.659 16.8417 109.256 20.6172C107.853 24.3927 105.847 27.9955 103.238 31.4255C103.583 32.2398 104.087 32.8568 104.752 33.2763C105.416 33.6711 106.179 33.8685 107.041 33.8685C107.385 33.8685 107.656 34.0166 107.853 34.3127C108.074 34.5841 108.185 34.9666 108.185 35.4601C108.185 36.4965 107.73 37.0147 106.819 37.0147C105.49 37.0147 104.309 36.731 103.275 36.1634C102.241 35.5958 101.441 34.8679 100.875 33.9795C98.8322 36.003 98.0883 37.0147 95.7008 37.0147ZM102.167 16.8047C102.167 19.3957 102.18 21.5302 102.204 23.2082C102.253 24.8862 102.315 26.2681 102.389 27.3539C104.259 24.2447 105.675 21.2094 106.635 18.2483C107.594 15.2624 108.074 12.3629 108.074 9.5498C108.074 7.50166 107.841 5.9347 107.373 4.84893C106.905 3.73849 106.241 3.18327 105.379 3.18327C104.419 3.18327 103.693 3.75083 103.201 4.88595C102.955 5.47818 102.746 6.23082 102.573 7.14385C102.426 8.0322 102.315 9.24135 102.241 10.7713C102.192 12.3012 102.167 14.3124 102.167 16.8047Z" fill="black"/>
<path d="M106.819 37.0147C106.499 37.0147 104.804 36.8667 104.582 36.5706C104.361 36.2745 104.25 35.9166 104.25 35.4971C104.25 34.9789 104.373 34.5841 104.619 34.3127C104.841 34.0166 105.148 33.8685 105.542 33.8685C106.699 33.8685 107.868 33.7204 109.049 33.4243C110.206 33.1282 111.449 32.5977 112.778 31.8327C112.04 30.204 111.671 28.378 111.671 26.3545C111.671 24.8492 111.954 23.5167 112.52 22.3569C113.111 21.1724 113.898 20.2347 114.883 19.5438C115.892 18.8528 117.024 18.5074 118.279 18.5074C119.338 18.5074 120.285 18.7541 121.122 19.2477C121.959 19.7412 122.624 20.4075 123.116 21.2465C123.608 22.0855 123.854 23.0355 123.854 24.0966C123.854 25.6759 123.3 27.1812 122.193 28.6124C121.085 30.0436 119.473 31.3885 117.356 32.647C118.316 33.4613 119.645 33.8685 121.344 33.8685C122.057 33.8685 122.771 33.7698 123.485 33.5724C124.199 33.375 124.888 33.1035 125.553 32.7581C125.846 32.6771 127.288 31.8095 127.865 33.2554C128.442 34.7013 127 35.301 126.66 35.4971C125.848 35.966 124.986 36.3361 124.076 36.6076C123.165 36.879 122.205 37.0147 121.196 37.0147H121.159C119.781 37.0147 118.513 36.7927 117.356 36.3485C116.2 35.8796 115.252 35.238 114.514 34.4237C111.363 36.1511 109.748 37.0147 106.819 37.0147ZM114.846 26.2435C114.846 27.8721 115.141 29.18 115.732 30.167C119.005 28.2669 120.642 26.2435 120.642 24.0966C120.642 23.307 120.433 22.69 120.015 22.2459C119.596 21.8017 119.018 21.5796 118.279 21.5796C117.295 21.5796 116.47 22.0238 115.806 22.9121C115.166 23.7758 114.846 24.8862 114.846 26.2435Z" fill="black"/>
</svg>
